<svg width="24" height="24" viewBox="0 0 24 24" fill="none" xmlns="http://www.w3.org/2000/svg">
<path fill-rule="evenodd" clip-rule="evenodd" d="M6 2C3.79086 2 2 3.79086 2 6V18C2 20.2091 3.79086 22 6 22H18C20.2091 22 22 20.2091 22 18V6C22 3.79086 20.2091 2 18 2H6ZM17.1189 7.5C17.3465 7.5 17.5648 7.59371 17.7251 7.7603C17.9003 7.9269 18 8.16141 18 8.4071C18 8.6528 17.9003 8.8873 17.7251 9.0539L10.7576 16.2347C10.5973 16.4013 10.3791 16.495 10.1514 16.495C9.92374 16.495 9.70549 16.4013 9.54517 16.2347L6.26636 12.8555C6.04214 12.6323 5.95051 12.3027 6.02597 11.991C6.10144 11.6793 6.33253 11.4327 6.63221 11.3442C6.93189 11.2557 7.25462 11.3387 7.47883 11.5619L10.1514 14.3251L16.5126 7.7603C16.673 7.59371 16.8912 7.5 17.1189 7.5Z" fill="#0652DD"/>
</svg>
