<svg width="20" height="20" viewBox="0 0 20 20" fill="none" xmlns="http://www.w3.org/2000/svg">
<path d="M9.98243 10.5663L7.18246 7.73276C6.87396 7.42241 6.37572 7.42241 6.06721 7.73276C5.91748 7.88306 5.83325 8.08764 5.83325 8.30107C5.83325 8.5145 5.91748 8.71909 6.06721 8.86938L9.42085 12.2632C9.56937 12.4148 9.77153 12.5 9.98243 12.5C10.1933 12.5 10.3955 12.4148 10.544 12.2632L13.9372 8.86938C14.0853 8.71832 14.1678 8.51383 14.1666 8.30107C14.1678 8.08831 14.0853 7.88382 13.9372 7.73276C13.6287 7.42241 13.1305 7.42241 12.822 7.73276L9.98243 10.5663Z" fill="#20232D"/>
</svg>
