<svg width="20" height="20" viewBox="0 0 20 20" fill="none" xmlns="http://www.w3.org/2000/svg">
<path d="M11.5703 10.0009L15.4945 6.07559C15.7831 5.79687 15.8988 5.38414 15.7972 4.99602C15.6956 4.60789 15.3925 4.30479 15.0044 4.2032C14.6163 4.10161 14.2035 4.21734 13.9248 4.50592L9.99953 8.4301L6.07535 4.50592C5.79663 4.21734 5.38389 4.10161 4.99577 4.2032C4.60765 4.30479 4.30455 4.60789 4.20295 4.99602C4.10136 5.38414 4.2171 5.79687 4.50567 6.07559L8.42985 9.99977L4.50567 13.9251C4.2171 14.2038 4.10136 14.6165 4.20295 15.0046C4.30455 15.3928 4.60765 15.6959 4.99577 15.7975C5.38389 15.899 5.79663 15.7833 6.07535 15.4947L9.99953 11.5706L13.9248 15.4947C14.2035 15.7833 14.6163 15.899 15.0044 15.7975C15.3925 15.6959 15.6956 15.3928 15.7972 15.0046C15.8988 14.6165 15.7831 14.2038 15.4945 13.9251L11.5703 9.99977V10.0009Z" fill="#5C5E6A"/>
</svg>
