<svg width="20" height="20" viewBox="0 0 20 20" fill="none" xmlns="http://www.w3.org/2000/svg">
<path fill-rule="evenodd" clip-rule="evenodd" d="M6.56548 2.39874C7.03433 1.9299 7.67021 1.6665 8.33325 1.6665H11.6666C12.3296 1.6665 12.9655 1.9299 13.4344 2.39874C13.9032 2.86758 14.1666 3.50346 14.1666 4.1665V4.99984H16.6666C18.0473 4.99984 19.1666 6.11913 19.1666 7.49984V15.8332C19.1666 17.2139 18.0473 18.3332 16.6666 18.3332H3.33325C1.95254 18.3332 0.833252 17.2139 0.833252 15.8332V7.49984C0.833252 6.11913 1.95254 4.99984 3.33325 4.99984H5.83325V4.1665C5.83325 3.50346 6.09664 2.86758 6.56548 2.39874ZM5.83325 6.6665H3.33325C2.87301 6.6665 2.49992 7.0396 2.49992 7.49984V15.8332C2.49992 16.2934 2.87301 16.6665 3.33325 16.6665H5.83325V6.6665ZM7.49992 16.6665V6.6665H12.4999V16.6665H7.49992ZM14.1666 16.6665H16.6666C17.1268 16.6665 17.4999 16.2934 17.4999 15.8332V7.49984C17.4999 7.0396 17.1268 6.6665 16.6666 6.6665H14.1666V16.6665ZM12.4999 4.99984H7.49992V4.1665C7.49992 3.94549 7.58772 3.73353 7.744 3.57725C7.90028 3.42097 8.11224 3.33317 8.33325 3.33317H11.6666C11.8876 3.33317 12.0996 3.42097 12.2558 3.57725C12.4121 3.73353 12.4999 3.94549 12.4999 4.1665V4.99984Z" fill="#5C5E6A"/>
</svg>
