<svg width="16" height="16" viewBox="0 0 16 16" fill="none" xmlns="http://www.w3.org/2000/svg">
<path fill-rule="evenodd" clip-rule="evenodd" d="M2.66675 2.66683C2.48994 2.66683 2.32037 2.73707 2.19534 2.86209C2.07032 2.98712 2.00008 3.15668 2.00008 3.3335V10.0002C2.00008 10.177 2.07032 10.3465 2.19534 10.4716C2.32037 10.5966 2.48994 10.6668 2.66675 10.6668H3.33341C3.7016 10.6668 4.00008 10.9653 4.00008 11.3335C4.00008 11.7017 3.7016 12.0002 3.33341 12.0002H2.66675C2.13631 12.0002 1.62761 11.7894 1.25253 11.4144C0.877462 11.0393 0.666748 10.5306 0.666748 10.0002V3.3335C0.666748 2.80306 0.877462 2.29436 1.25253 1.91928C1.62761 1.54421 2.13632 1.3335 2.66675 1.3335H13.3334C13.8638 1.3335 14.3726 1.54421 14.7476 1.91928C15.1227 2.29436 15.3334 2.80306 15.3334 3.3335V10.0002C15.3334 10.5306 15.1227 11.0393 14.7476 11.4144C14.3726 11.7894 13.8638 12.0002 13.3334 12.0002H12.6667C12.2986 12.0002 12.0001 11.7017 12.0001 11.3335C12.0001 10.9653 12.2986 10.6668 12.6667 10.6668H13.3334C13.5102 10.6668 13.6798 10.5966 13.8048 10.4716C13.9298 10.3465 14.0001 10.177 14.0001 10.0002V3.3335C14.0001 3.15669 13.9298 2.98712 13.8048 2.86209C13.6798 2.73707 13.5102 2.66683 13.3334 2.66683H2.66675ZM8.00008 9.3335C8.19793 9.3335 8.38557 9.42138 8.51223 9.57337L11.8456 13.5734C12.0112 13.7721 12.0469 14.0487 11.9371 14.2829C11.8274 14.5172 11.5921 14.6668 11.3334 14.6668H4.66675C4.40807 14.6668 4.17274 14.5172 4.06302 14.2829C3.9533 14.0487 3.989 13.7721 4.1546 13.5734L7.48793 9.57337C7.6146 9.42138 7.80223 9.3335 8.00008 9.3335ZM6.09011 13.3335H9.91005L8.00008 11.0415L6.09011 13.3335Z" fill="#414042"/>
</svg>
