<svg width="16" height="16" viewBox="0 0 16 16" fill="none" xmlns="http://www.w3.org/2000/svg">
<path fill-rule="evenodd" clip-rule="evenodd" d="M6.16024 1.47412C6.44719 1.47412 6.70195 1.65774 6.79269 1.92997L10.1602 12.0326L11.5278 7.92997C11.6185 7.65774 11.8733 7.47412 12.1602 7.47412H14.8269C15.1951 7.47412 15.4936 7.7726 15.4936 8.14079C15.4936 8.50898 15.1951 8.80745 14.8269 8.80745H12.6407L10.7927 14.3516C10.702 14.6238 10.4472 14.8075 10.1602 14.8075C9.87328 14.8075 9.61852 14.6238 9.52778 14.3516L6.16024 4.24897L4.79269 8.35161C4.70195 8.62383 4.44719 8.80745 4.16024 8.80745H1.49357C1.12538 8.80745 0.826904 8.50898 0.826904 8.14079C0.826904 7.7726 1.12538 7.47412 1.49357 7.47412H3.67973L5.52778 1.92997C5.61852 1.65774 5.87328 1.47412 6.16024 1.47412Z" fill="#414042"/>
</svg>
