<svg width="16" height="16" viewBox="0 0 16 16" fill="none" xmlns="http://www.w3.org/2000/svg">
<path fill-rule="evenodd" clip-rule="evenodd" d="M7.00135 0.932686C7.30504 0.758302 7.64939 0.666504 7.99992 0.666504C8.35046 0.666504 8.69483 0.758309 8.99853 0.932708C8.99899 0.932974 8.99945 0.93324 8.99992 0.933507L13.6666 3.59075C13.9132 3.73266 14.126 3.92502 14.2912 4.15435C14.3314 4.19445 14.3671 4.24039 14.397 4.29181C14.4227 4.3361 14.4427 4.38211 14.4572 4.42901C14.5944 4.70368 14.6663 5.00675 14.6666 5.31465V10.6305C14.6662 10.98 14.5736 11.3233 14.3981 11.6258C14.2226 11.9284 13.9703 12.1797 13.6666 12.3544L13.664 12.3559L8.99992 15.0117C8.99952 15.0119 8.99912 15.0121 8.99872 15.0123C8.78724 15.1338 8.55604 15.2152 8.31676 15.2535C8.22251 15.3043 8.1146 15.3332 7.99992 15.3332C7.88524 15.3332 7.77732 15.3043 7.68308 15.2535C7.44381 15.2152 7.21262 15.1338 7.00115 15.0124C7.00074 15.0121 7.00033 15.0119 6.99992 15.0117L2.33583 12.3559L2.33325 12.3544C2.02951 12.1797 1.77723 11.9284 1.60171 11.6258C1.42619 11.3233 1.33361 10.98 1.33325 10.6305V5.31465C1.33357 5.00675 1.40547 4.70369 1.5426 4.42902C1.55713 4.38212 1.57714 4.3361 1.60285 4.29181C1.6327 4.24039 1.6684 4.19445 1.70864 4.15435C1.87388 3.92502 2.0866 3.73266 2.33325 3.59076L2.33582 3.58928L7.00135 0.932686ZM2.66658 5.67243V10.6294C2.66676 10.7458 2.69761 10.8601 2.75607 10.9609C2.81438 11.0614 2.89809 11.145 2.99887 11.2032C2.99922 11.2034 2.99957 11.2036 2.99992 11.2038L7.33325 13.6712V8.3624L2.66658 5.67243ZM8.66658 8.3624V13.6712L12.9999 11.2038C13.0003 11.2036 13.0006 11.2034 13.001 11.2032C13.1017 11.145 13.1855 11.0614 13.2438 10.9609C13.3023 10.8601 13.3331 10.7457 13.3333 10.6292V5.67242L8.66658 8.3624ZM12.6406 4.53678L8.33325 2.08414C8.2319 2.02583 8.11694 1.99513 7.99992 1.99513C7.88289 1.99513 7.76793 2.02583 7.66658 2.08413L7.66401 2.08561L3.35925 4.53678L7.99992 7.21177L12.6406 4.53678Z" fill="#414042"/>
</svg>
