<svg width="16" height="16" viewBox="0 0 16 16" fill="none" xmlns="http://www.w3.org/2000/svg">
<path d="M6.66667 2.13349C3.78001 2.80268 1.81417 5.47897 2.03896 8.43364C2.26375 11.3883 4.61184 13.7364 7.56651 13.9612C10.5212 14.186 13.1975 12.2201 13.8667 9.33349C13.8667 8.9653 13.5682 8.66682 13.2 8.66682H10.6667C10.3315 9.95548 9.11653 10.8151 7.78979 10.7023C6.46304 10.5895 5.41063 9.53711 5.29783 8.21037C5.18503 6.88362 6.04467 5.66865 7.33333 5.33349V2.66682C7.3166 2.50728 7.23668 2.36109 7.11142 2.26088C6.98616 2.16067 6.82599 2.11479 6.66667 2.13349" stroke="#414042" stroke-width="1.33333" stroke-linecap="round" stroke-linejoin="round"/>
<path d="M10 2.3335C11.7145 2.93721 13.063 4.28563 13.6667 6.00016H10.6667C10.4623 5.7608 10.2394 5.53789 10 5.3335V2.3335" stroke="#414042" stroke-width="1.33333" stroke-linecap="round" stroke-linejoin="round"/>
</svg>
