<svg width="57" height="56" viewBox="0 0 57 56" fill="none" xmlns="http://www.w3.org/2000/svg">
<circle opacity="0.5" cx="28.25" cy="28" r="28" fill="#E4E8FF"/>
<path d="M30.8988 17.8598C30.785 17.7455 30.6496 17.6549 30.5006 17.5932C30.3516 17.5314 30.1919 17.4998 30.0306 17.5H18.9781C18.6524 17.5 18.34 17.6294 18.1097 17.8597C17.8794 18.09 17.75 18.4023 17.75 18.728V29.78C17.75 30.1067 17.8789 30.4186 18.1098 30.6482L27.9343 40.4723C28.0481 40.5867 28.1833 40.6775 28.3324 40.7395C28.4814 40.8014 28.6411 40.8333 28.8025 40.8333C28.9639 40.8333 29.1237 40.8014 29.2727 40.7395C29.4217 40.6775 29.557 40.5867 29.6708 40.4723L40.7233 29.4202C40.8374 29.3063 40.928 29.171 40.9897 29.022C41.0515 28.873 41.0833 28.7133 41.0833 28.552C41.0833 28.3908 41.0515 28.2311 40.9897 28.0821C40.928 27.9331 40.8374 27.7978 40.7233 27.6838L30.8988 17.8598ZM28.8025 37.8677L20.2061 29.2716V19.956H29.5222L38.1186 28.552L28.8025 37.8677Z" fill="#243FFA"/>
<path d="M24.4994 26.096C25.5201 26.096 26.3476 25.2686 26.3476 24.2479C26.3476 23.2272 25.5201 22.3997 24.4994 22.3997C23.4787 22.3997 22.6512 23.2272 22.6512 24.2479C22.6512 25.2686 23.4787 26.096 24.4994 26.096Z" fill="#243FFA"/>
</svg>
