<svg width="57" height="56" viewBox="0 0 57 56" fill="none" xmlns="http://www.w3.org/2000/svg">
<circle opacity="0.5" cx="28.75" cy="28" r="28" fill="#E4E8FF"/>
<path d="M33.4166 28H35.7499V32.6667H33.4166V28Z" fill="#243FFA"/>
<path d="M38.0833 22.1667V19.8333C38.0833 18.5465 37.0368 17.5 35.7499 17.5H20.5833C18.6536 17.5 17.0833 19.0703 17.0833 21V35C17.0833 37.5678 19.1763 38.5 20.5833 38.5H38.0833C39.3701 38.5 40.4166 37.4535 40.4166 36.1667V24.5C40.4166 23.2132 39.3701 22.1667 38.0833 22.1667ZM20.5833 19.8333H35.7499V22.1667H20.5833C20.2829 22.1532 19.9992 22.0244 19.7914 21.8071C19.5836 21.5898 19.4676 21.3007 19.4676 21C19.4676 20.6993 19.5836 20.4102 19.7914 20.1929C19.9992 19.9756 20.2829 19.8468 20.5833 19.8333ZM38.0833 36.1667H20.5973C20.0583 36.1527 19.4166 35.9392 19.4166 35V24.2842C19.7829 24.416 20.1714 24.5 20.5833 24.5H38.0833V36.1667Z" fill="#243FFA"/>
</svg>
