<svg width="16" height="16" viewBox="0 0 16 16" fill="none" xmlns="http://www.w3.org/2000/svg">
<path fill-rule="evenodd" clip-rule="evenodd" d="M8.44906 1.52166C8.2011 1.27078 7.79907 1.27078 7.5511 1.52166L0.852721 8.29893C0.604757 8.54981 0.604757 8.95658 0.852721 9.20746C1.10068 9.45835 1.50271 9.45835 1.75068 9.20746L2.15682 8.79653V13.2714C2.15682 13.6415 2.30213 13.9964 2.56078 14.2581C2.81944 14.5198 3.17025 14.6668 3.53604 14.6668H5.76883C6.13462 14.6668 6.48543 14.5198 6.74408 14.2581C7.00274 13.9964 7.14805 13.6415 7.14805 13.2714V10.2593C7.14805 10.2299 7.15956 10.2018 7.18006 10.181C7.20057 10.1603 7.22837 10.1486 7.25736 10.1486H8.74589C8.77488 10.1486 8.80269 10.1603 8.82319 10.181C8.84369 10.2018 8.85521 10.2299 8.85521 10.2593V13.2714C8.85521 13.6415 9.00051 13.9964 9.25917 14.2581C9.51782 14.5198 9.86863 14.6668 10.2344 14.6668H12.4672C12.833 14.6668 13.1838 14.5198 13.4425 14.2581C13.7011 13.9964 13.8464 13.6415 13.8464 13.2714V8.79966L14.2495 9.20746C14.4974 9.45835 14.8995 9.45835 15.1474 9.20746C15.3954 8.95658 15.3954 8.54981 15.1474 8.29893L13.6861 6.8204C13.6695 6.80154 13.6519 6.78367 13.6332 6.76689L8.44906 1.52166ZM12.5765 7.5148L8.00008 2.88446L3.42672 7.51168V13.2714C3.42672 13.3007 3.43824 13.3288 3.45874 13.3496C3.47924 13.3703 3.50704 13.382 3.53604 13.382H5.76883C5.79782 13.382 5.82563 13.3703 5.84613 13.3496C5.86663 13.3288 5.87815 13.3007 5.87815 13.2714V10.2593C5.87815 9.88915 6.02346 9.53421 6.28211 9.27251C6.54076 9.01081 6.89157 8.86379 7.25736 8.86379H8.74589C9.11168 8.86379 9.46249 9.01081 9.72114 9.27251C9.9798 9.53421 10.1251 9.88915 10.1251 10.2593V13.2714C10.1251 13.3007 10.1366 13.3288 10.1571 13.3496C10.1776 13.3703 10.2054 13.382 10.2344 13.382H12.4672C12.4962 13.382 12.524 13.3703 12.5445 13.3496C12.565 13.3288 12.5765 13.3007 12.5765 13.2714V7.5148Z" fill="#414042"/>
</svg>
