<svg width="20" height="20" viewBox="0 0 20 20" fill="none" xmlns="http://www.w3.org/2000/svg">
<path d="M4.16667 8.33366C5.08714 8.33366 5.83333 9.07985 5.83333 10.0003C5.83333 10.9208 5.08714 11.667 4.16667 11.667C3.24619 11.667 2.5 10.9208 2.5 10.0003C2.5 9.07985 3.24619 8.33366 4.16667 8.33366Z" fill="#20232D"/>
<path d="M10 8.33366C10.9205 8.33366 11.6667 9.07985 11.6667 10.0003C11.6667 10.9208 10.9205 11.667 10 11.667C9.07953 11.667 8.33333 10.9208 8.33333 10.0003C8.33333 9.07985 9.07953 8.33366 10 8.33366Z" fill="#20232D"/>
<path d="M15.8333 8.33366C16.7538 8.33366 17.5 9.07985 17.5 10.0003C17.5 10.9208 16.7538 11.667 15.8333 11.667C14.9129 11.667 14.1667 10.9208 14.1667 10.0003C14.1667 9.07985 14.9129 8.33366 15.8333 8.33366Z" fill="#20232D"/>
</svg>
