<svg width="125" height="36" viewBox="0 0 125 36" fill="none" xmlns="http://www.w3.org/2000/svg">
<g clip-path="url(#clip0_1_855)">
<path d="M121.883 22.0655V21.7379C121.883 19.035 121.883 16.3484 121.883 13.6455C121.883 12.8592 121.801 12.0893 121.538 11.3358C121.062 9.95977 119.98 9.12433 118.519 9.05881C117.962 9.04243 117.387 9.05881 116.846 9.17347C115.451 9.48472 114.697 10.4676 114.401 11.7945C114.27 12.4006 114.205 13.0394 114.205 13.6619C114.188 16.3484 114.188 19.035 114.188 21.7215V22.0327H111.104V0H114.172V7.61726C114.221 7.60088 114.254 7.60088 114.254 7.5845C115.14 6.55248 116.288 6.09381 117.617 6.02828C119.012 5.96276 120.357 6.15933 121.604 6.83096C123.359 7.78107 124.344 9.30452 124.754 11.2211C124.852 11.7126 124.902 12.2368 124.967 12.7282C124.967 12.7773 125 12.8429 125.016 12.892V22.0655H121.883Z" fill="#0652DD"/>
<path d="M14.5032 9.18986C15.9962 11.0737 16.6196 13.1705 16.3079 15.513C15.9962 17.8391 14.8149 19.6902 12.9118 21.0826C13.2235 21.3447 13.5352 21.5904 13.8306 21.8689C15.5368 23.507 16.4064 25.5055 16.4064 27.8808C16.3899 31.9106 13.4204 35.3015 9.40084 35.9076C4.98753 36.5792 0.803912 33.5159 0.114845 29.1094C0.0492199 28.6835 0.0164072 28.2412 0.0164072 27.7989C8.15839e-07 26.9798 0.672661 26.3246 1.49298 26.3246C2.29689 26.3246 2.93674 26.9798 2.95314 27.7989C3.00236 29.8138 3.88831 31.37 5.64379 32.3693C8.87584 34.2367 13.0431 32.0744 13.4204 28.3722C13.7485 25.2434 11.3204 22.5733 8.15396 22.5733C4.06878 22.5733 0.574223 19.4609 0.0820326 15.4147C-0.442971 11.0409 2.52658 7.07668 6.87426 6.35591C7.33364 6.274 7.79302 6.24124 8.2524 6.24124C10.6641 6.22486 13.0759 6.24124 15.4876 6.24124C16.2587 6.24124 16.8493 6.65077 17.0298 7.3224C17.2923 8.27251 16.6032 9.17348 15.6024 9.18986C15.2415 9.20624 14.897 9.18986 14.5032 9.18986ZM13.4204 14.3991C13.4204 11.5487 11.0743 9.18986 8.21958 9.18986C5.29925 9.18986 2.96955 11.4996 2.95314 14.3991C2.93674 17.2494 5.33207 19.6411 8.18677 19.6247C11.0743 19.6247 13.4204 17.2658 13.4204 14.3991Z" fill="#0652DD"/>
<path d="M46.2003 0H49.3339V8.27251C49.4651 8.12508 49.5472 8.04317 49.6456 7.94488C50.9253 6.63439 52.5003 6.04466 54.3214 6.02828C58.1441 5.97914 60.8512 8.51822 61.8848 11.0082C63.0168 13.7602 62.6723 17.3641 60.1785 19.854C58.8496 21.1809 57.2746 22.0163 55.4042 22.2457C50.2855 22.8845 46.8237 19.0677 46.3315 15.5949C46.2659 15.1198 46.2167 14.6448 46.2167 14.1697C46.2003 9.56662 46.2167 4.94712 46.2167 0.344005V0H46.2003ZM49.2683 14.1697C49.3011 14.4646 49.3011 14.7595 49.3503 15.0543C50.0066 19.0513 54.4199 20.3946 57.2418 18.4125C58.948 17.2166 59.5387 15.4966 59.3418 13.4653C59.0793 10.9754 56.7332 8.48546 53.3206 9.14071C50.9253 9.59939 49.2847 11.6962 49.2683 14.1697Z" fill="#0652DD"/>
<path d="M90.4318 15.3164H77.6841C77.7989 16.2829 78.1435 17.1184 78.7997 17.8228C79.9318 19.0186 81.3427 19.4117 82.9505 19.2807C84.1646 19.1824 85.2146 18.7073 86.0677 17.8391C86.1169 17.79 86.199 17.7409 86.281 17.7409C87.4459 17.7409 88.6271 17.7572 89.792 17.7736C89.8084 17.7736 89.8248 17.79 89.8904 17.8391C89.5951 18.2814 89.3162 18.7401 89.0045 19.166C86.5763 22.2948 82.0482 23.3105 78.6028 21.3775C75.7481 19.7721 74.288 17.2658 74.3864 13.9732C74.4848 10.7952 76.0106 8.4527 78.7669 6.91287C80.0794 6.1921 81.5068 5.97914 82.9833 6.07743C85.4935 6.25762 87.5279 7.37154 89.0537 9.35367C89.9068 10.4512 90.3498 11.7453 90.481 13.1213C90.5467 13.7602 90.4974 14.4155 90.481 15.0707C90.4646 15.1199 90.4482 15.2018 90.4318 15.3164ZM87.167 12.761C86.806 11.0246 85.0013 9.07519 82.6388 9.04243C80.1943 9.00967 78.0614 10.615 77.7005 12.761H87.167Z" fill="#0652DD"/>
<path d="M43.2143 6.29038C43.2143 6.38867 43.2143 6.47058 43.2143 6.55248C43.2143 9.30453 43.2143 12.0566 43.2143 14.8086C43.2143 15.9881 43.0503 17.1511 42.6237 18.265C41.9182 20.1161 40.6057 21.3447 38.7354 21.9344C37.0783 22.4586 35.4049 22.4586 33.7643 21.9181C31.615 21.23 30.2861 19.7394 29.6791 17.577C29.433 16.6924 29.3181 15.7915 29.3181 14.8578C29.3181 12.0729 29.3181 9.28814 29.3181 6.50334C29.3181 6.43781 29.3181 6.35591 29.3345 6.274H32.4353V6.60163C32.4353 9.32091 32.4189 12.0402 32.4518 14.7595C32.4518 15.4147 32.5502 16.0863 32.7143 16.7088C33.1408 18.2978 34.2236 19.1496 35.8807 19.2643C36.4713 19.2971 37.0619 19.2643 37.6526 19.1005C38.9159 18.7237 39.6049 17.8228 39.9002 16.5942C40.0479 16.0044 40.1299 15.382 40.1299 14.7595C40.1463 12.0402 40.1463 9.32091 40.1463 6.60163V6.274H43.2143V6.29038Z" fill="#0652DD"/>
<path d="M108.512 17.1511C107.462 20.1653 104.082 22.9009 99.603 22.1965C95.7147 21.5904 92.8107 18.0685 92.8271 14.1206C92.8271 9.8451 96.2397 6.51972 99.8983 6.07743C104.492 5.53685 107.609 8.53461 108.512 11.2047C108.43 11.2047 108.364 11.2211 108.298 11.2211C107.347 11.2211 106.379 11.2211 105.427 11.2211C105.263 11.2211 105.181 11.172 105.083 11.0409C103.754 9.239 101.933 8.68204 99.8327 9.15709C97.7491 9.63215 96.5022 11.0246 96.0756 13.105C95.5342 15.7096 97.0436 18.2814 99.4881 19.035C101.342 19.6083 103.672 19.2479 105.066 17.2658C105.116 17.2003 105.181 17.1347 105.247 17.1347C106.313 17.1511 107.412 17.1511 108.512 17.1511Z" fill="#0652DD"/>
<path d="M68.3816 9.28814V10.2055C68.3816 11.6962 68.3816 13.1705 68.3816 14.6612C68.3816 15.4966 68.4801 16.2993 68.7918 17.0856C69.284 18.265 70.1699 18.9203 71.4168 19.1169C71.5317 19.1332 71.6465 19.1496 71.7614 19.166V22.1638C70.7114 22.131 69.727 21.9344 68.7918 21.4758C66.9871 20.5912 65.9535 19.1169 65.5269 17.1839C65.3301 16.3321 65.2644 15.4639 65.2644 14.5793C65.2644 12.9248 65.2644 11.2867 65.2644 9.63215V9.32091H62.9511V6.29038H65.2644V0H68.3652V6.274H71.7614V9.28814H68.3816Z" fill="#0652DD"/>
<path d="M26.2994 9.18986C25.8728 9.239 25.4627 9.239 25.0689 9.32091C23.8548 9.56663 23.1494 10.3693 22.772 11.4996C22.5259 12.2695 22.4603 13.0886 22.4603 13.8913C22.4603 16.4959 22.4603 19.1005 22.4603 21.7051C22.4603 21.8034 22.4603 21.9017 22.4603 22.0163H19.3595C19.3595 21.9344 19.3431 21.8525 19.3431 21.7542C19.3431 18.9858 19.3267 16.2338 19.3431 13.4654C19.3595 12.0074 19.5728 10.5659 20.3111 9.27176C21.2626 7.5845 22.7228 6.61801 24.6095 6.30676C25.1509 6.22486 25.7087 6.20848 26.283 6.15933V9.18986H26.2994Z" fill="#0652DD"/>
</g>
<defs>
<clipPath id="clip0_1_855">
<rect width="125" height="36" fill="white"/>
</clipPath>
</defs>
</svg>
