<svg width="20" height="20" viewBox="0 0 20 20" fill="none" xmlns="http://www.w3.org/2000/svg">
<path fill-rule="evenodd" clip-rule="evenodd" d="M4.16675 3.33317C3.94573 3.33317 3.73377 3.42097 3.57749 3.57725C3.42121 3.73353 3.33341 3.94549 3.33341 4.1665V15.8332C3.33341 16.0542 3.42121 16.2661 3.57749 16.4224C3.73377 16.5787 3.94573 16.6665 4.16675 16.6665H7.50008C7.96032 16.6665 8.33342 17.0396 8.33342 17.4998C8.33342 17.9601 7.96032 18.3332 7.50008 18.3332H4.16675C3.50371 18.3332 2.86782 18.0698 2.39898 17.6009C1.93014 17.1321 1.66675 16.4962 1.66675 15.8332V4.1665C1.66675 3.50346 1.93014 2.86758 2.39898 2.39874C2.86782 1.9299 3.50371 1.6665 4.16675 1.6665H7.50008C7.96032 1.6665 8.33342 2.0396 8.33342 2.49984C8.33342 2.96007 7.96032 3.33317 7.50008 3.33317H4.16675ZM12.7442 5.24392C13.0696 4.91848 13.5972 4.91848 13.9227 5.24392L18.0893 9.41058C18.4148 9.73602 18.4148 10.2637 18.0893 10.5891L13.9227 14.7558C13.5972 15.0812 13.0696 15.0812 12.7442 14.7558C12.4187 14.4303 12.4187 13.9027 12.7442 13.5772L15.4882 10.8332H7.50008C7.03984 10.8332 6.66675 10.4601 6.66675 9.99984C6.66675 9.5396 7.03984 9.1665 7.50008 9.1665H15.4882L12.7442 6.42243C12.4187 6.09699 12.4187 5.56935 12.7442 5.24392Z" fill="#0652DD"/>
</svg>
