<svg width="16" height="16" viewBox="0 0 16 16" fill="none" xmlns="http://www.w3.org/2000/svg">
<path d="M2.13341 4.77769L2.16275 6.30685L13.5001 3.38C13.7168 3.32446 13.9435 3.31858 14.1628 3.36283C14.3821 3.40709 14.5883 3.50028 14.7653 3.63527C14.9424 3.77025 15.0856 3.94342 15.1841 4.14146C15.2826 4.33951 15.3337 4.55717 15.3334 4.77769V10.5563C15.3339 10.7768 15.2829 10.9945 15.1845 11.1927C15.086 11.3908 14.9427 11.564 14.7656 11.6989C14.5885 11.8339 14.3823 11.927 14.1629 11.9711C13.9435 12.0152 13.7167 12.0091 13.5001 11.9532L2.13341 9.02639V10.5563C2.13341 10.7478 2.05615 10.9316 1.91863 11.067C1.7811 11.2025 1.59457 11.2786 1.40008 11.2786C1.20559 11.2786 1.01906 11.2025 0.881536 11.067C0.74401 10.9316 0.666748 10.7478 0.666748 10.5563V4.77769C0.666748 4.58612 0.74401 4.4024 0.881536 4.26694C1.01906 4.13147 1.20559 4.05537 1.40008 4.05537C1.59457 4.05537 1.7811 4.13147 1.91863 4.26694C2.05615 4.4024 2.13341 4.58612 2.13341 4.77769ZM3.60008 7.42428V7.91546L13.8667 10.5563V4.77769L3.60008 7.42428Z" fill="#414042"/>
</svg>
