<svg width="16" height="16" viewBox="0 0 16 16" fill="none" xmlns="http://www.w3.org/2000/svg">
<g clip-path="url(#clip0_7_60843)">
<path fill-rule="evenodd" clip-rule="evenodd" d="M7.52846 0.861766C7.65348 0.736742 7.82305 0.666504 7.99986 0.666504C8.96289 0.666504 9.91649 0.856186 10.8062 1.22472C11.6959 1.59326 12.5043 2.13342 13.1853 2.81439C13.8663 3.49535 14.4064 4.30377 14.775 5.19349C15.1435 6.08321 15.3332 7.03681 15.3332 7.99984C15.3332 8.36803 15.0347 8.6665 14.6665 8.6665H7.99986C7.63167 8.6665 7.3332 8.36803 7.3332 7.99984V1.33317C7.3332 1.15636 7.40343 0.98679 7.52846 0.861766ZM8.66653 2.03699V7.33317H13.9627C13.9002 6.77411 13.7593 6.2255 13.5431 5.70374C13.2416 4.97578 12.7997 4.31435 12.2425 3.7572C11.6854 3.20004 11.0239 2.75809 10.296 2.45656C9.7742 2.24044 9.22559 2.09949 8.66653 2.03699ZM5.94422 1.61986C6.09148 1.95732 5.93729 2.35026 5.59984 2.49753C4.70156 2.88952 3.91299 3.49558 3.30306 4.26274C2.69313 5.0299 2.28042 5.93479 2.10099 6.89831C1.92157 7.86182 1.98091 8.85461 2.27382 9.78989C2.56672 10.7252 3.08428 11.5745 3.78125 12.2635C4.47821 12.9526 5.33336 13.4604 6.27192 13.7426C7.21049 14.0248 8.2039 14.0728 9.1653 13.8824C10.1267 13.692 11.0268 13.269 11.787 12.6503C12.5471 12.0317 13.1441 11.2362 13.5258 10.3335C13.6692 9.99441 14.0604 9.83575 14.3995 9.97914C14.7386 10.1225 14.8973 10.5137 14.7539 10.8528C14.2874 11.9561 13.5577 12.9283 12.6286 13.6844C11.6995 14.4406 10.5994 14.9576 9.42434 15.1903C8.2493 15.423 7.03513 15.3644 5.888 15.0195C4.74086 14.6745 3.69568 14.0539 2.84384 13.2117C1.99199 12.3695 1.35942 11.3315 1.00142 10.1884C0.643423 9.04526 0.5709 7.83184 0.790194 6.65421C1.00949 5.47659 1.51392 4.37061 2.25939 3.43297C3.00486 2.49533 3.96867 1.75458 5.06656 1.27548C5.40401 1.12822 5.79696 1.28241 5.94422 1.61986Z" fill="white"/>
</g>
<defs>
<clipPath id="clip0_7_60843">
<rect width="16" height="16" fill="white"/>
</clipPath>
</defs>
</svg>
