<svg width="20" height="20" viewBox="0 0 20 20" fill="none" xmlns="http://www.w3.org/2000/svg">
<path d="M9.16675 5.00033C9.16675 4.54009 9.53984 4.16699 10.0001 4.16699C10.4603 4.16699 10.8334 4.54009 10.8334 5.00033V15.0003C10.8334 15.4606 10.4603 15.8337 10.0001 15.8337C9.53984 15.8337 9.16675 15.4606 9.16675 15.0003V5.00033Z" fill="white"/>
<path d="M5.00008 10.8337C4.53984 10.8337 4.16675 10.4606 4.16675 10.0003C4.16675 9.54009 4.53984 9.16699 5.00008 9.16699L15.0001 9.16699C15.4603 9.16699 15.8334 9.54009 15.8334 10.0003C15.8334 10.4606 15.4603 10.8337 15.0001 10.8337L5.00008 10.8337Z" fill="white"/>
</svg>
