<svg width="16" height="16" viewBox="0 0 16 16" fill="none" xmlns="http://www.w3.org/2000/svg">
<path d="M7.33325 4.00016C7.33325 3.63197 7.63173 3.3335 7.99992 3.3335C8.36811 3.3335 8.66659 3.63197 8.66659 4.00016V12.0002C8.66659 12.3684 8.36811 12.6668 7.99992 12.6668C7.63173 12.6668 7.33325 12.3684 7.33325 12.0002V4.00016Z" fill="white"/>
<path d="M3.99992 8.66683C3.63173 8.66683 3.33325 8.36835 3.33325 8.00016C3.33325 7.63197 3.63173 7.3335 3.99992 7.3335L11.9999 7.3335C12.3681 7.3335 12.6666 7.63197 12.6666 8.00016C12.6666 8.36835 12.3681 8.66683 11.9999 8.66683L3.99992 8.66683Z" fill="white"/>
</svg>
