<svg width="16" height="16" viewBox="0 0 16 16" fill="none" xmlns="http://www.w3.org/2000/svg">
<path fill-rule="evenodd" clip-rule="evenodd" d="M6 1.99984C4.89543 1.99984 4 2.89527 4 3.99984C4 5.10441 4.89543 5.99984 6 5.99984C7.10457 5.99984 8 5.10441 8 3.99984C8 2.89527 7.10457 1.99984 6 1.99984ZM2.66667 3.99984C2.66667 2.15889 4.15905 0.666504 6 0.666504C7.84095 0.666504 9.33333 2.15889 9.33333 3.99984C9.33333 5.84079 7.84095 7.33317 6 7.33317C4.15905 7.33317 2.66667 5.84079 2.66667 3.99984ZM10.0208 1.25448C10.1122 0.897794 10.4753 0.682678 10.832 0.774004C11.549 0.957588 12.1846 1.37459 12.6384 1.95926C13.0922 2.54394 13.3386 3.26303 13.3386 4.00317C13.3386 4.74331 13.0922 5.4624 12.6384 6.04708C12.1846 6.63175 11.549 7.04875 10.832 7.23234C10.4753 7.32366 10.1122 7.10855 10.0208 6.75186C9.92951 6.39518 10.1446 6.032 10.5013 5.94067C10.9315 5.83052 11.3128 5.58032 11.5851 5.22951C11.8574 4.87871 12.0052 4.44726 12.0052 4.00317C12.0052 3.55909 11.8574 3.12763 11.5851 2.77683C11.3128 2.42602 10.9315 2.17582 10.5013 2.06567C10.1446 1.97435 9.92951 1.61116 10.0208 1.25448ZM0.976311 9.64281C1.60143 9.01769 2.44928 8.6665 3.33333 8.6665H8.66667C9.55072 8.6665 10.3986 9.01769 11.0237 9.64281C11.6488 10.2679 12 11.1158 12 11.9998V13.3332C12 13.7014 11.7015 13.9998 11.3333 13.9998C10.9651 13.9998 10.6667 13.7014 10.6667 13.3332V11.9998C10.6667 11.4694 10.456 10.9607 10.0809 10.5856C9.70581 10.2106 9.1971 9.99984 8.66667 9.99984H3.33333C2.8029 9.99984 2.29419 10.2106 1.91912 10.5856C1.54405 10.9607 1.33333 11.4694 1.33333 11.9998V13.3332C1.33333 13.7014 1.03486 13.9998 0.666667 13.9998C0.298477 13.9998 0 13.7014 0 13.3332V11.9998C0 11.1158 0.35119 10.2679 0.976311 9.64281ZM12.6878 9.25317C12.7799 8.89667 13.1435 8.68229 13.5 8.77434C14.2151 8.95898 14.8486 9.37589 15.3011 9.9596C15.7536 10.5433 15.9994 11.2608 16 11.9993V13.3332C16 13.7014 15.7015 13.9998 15.3333 13.9998C14.9651 13.9998 14.6667 13.7014 14.6667 13.3332V12.0003C14.6663 11.5572 14.5188 11.1267 14.2474 10.7765C13.9759 10.4263 13.5957 10.1761 13.1667 10.0653C12.8102 9.97329 12.5958 9.60967 12.6878 9.25317Z" fill="#414042"/>
</svg>
