<svg width="16" height="16" viewBox="0 0 16 16" fill="none" xmlns="http://www.w3.org/2000/svg">
<g clip-path="url(#clip0_1_1000)">
<path d="M8.00008 15.3332C6.99786 15.3332 6.05064 15.1405 5.15841 14.7553C4.26619 14.3705 3.48715 13.845 2.82128 13.1786C2.15493 12.5128 1.62937 11.7337 1.24461 10.8415C0.85937 9.94928 0.666748 9.00206 0.666748 7.99984C0.666748 6.98539 0.85937 6.03524 1.24461 5.14937C1.62937 4.26301 2.15493 3.4869 2.82128 2.82104C3.48715 2.15468 4.26619 1.62888 5.15841 1.24364C6.05064 0.858882 6.99786 0.666504 8.00008 0.666504C9.01453 0.666504 9.96468 0.858882 10.8505 1.24364C11.7369 1.62888 12.513 2.15468 13.1789 2.82104C13.8452 3.4869 14.3708 4.26301 14.7555 5.14937C15.1408 6.03524 15.3334 6.98539 15.3334 7.99984C15.3334 9.00206 15.1408 9.94928 14.7555 10.8415C14.3708 11.7337 13.8452 12.5128 13.1789 13.1786C12.513 13.845 11.7369 14.3705 10.8505 14.7553C9.96468 15.1405 9.01453 15.3332 8.00008 15.3332ZM10.8967 5.0665H13.0601C12.7056 4.45539 12.2625 3.92373 11.7305 3.4715C11.1991 3.01928 10.5912 2.68317 9.90675 2.46317C10.1267 2.8665 10.3194 3.28499 10.4846 3.71864C10.6494 4.15277 10.7867 4.60206 10.8967 5.0665ZM6.60675 5.0665H9.39341C9.24675 4.52873 9.0573 4.0215 8.82508 3.54484C8.59286 3.06817 8.31786 2.60984 8.00008 2.16984C7.6823 2.60984 7.4073 3.06817 7.17508 3.54484C6.94286 4.0215 6.75341 4.52873 6.60675 5.0665ZM2.31675 9.4665H4.81008C4.77341 9.22206 4.74579 8.98055 4.72721 8.74197C4.70913 8.50388 4.70008 8.2565 4.70008 7.99984C4.70008 7.74317 4.70913 7.49579 4.72721 7.2577C4.74579 7.01913 4.77341 6.77762 4.81008 6.53317H2.31675C2.25564 6.77762 2.20968 7.01913 2.17888 7.2577C2.14857 7.49579 2.13341 7.74317 2.13341 7.99984C2.13341 8.2565 2.14857 8.50388 2.17888 8.74197C2.20968 8.98055 2.25564 9.22206 2.31675 9.4665ZM6.09341 13.5365C5.87341 13.1332 5.68104 12.7144 5.51628 12.2803C5.35104 11.8467 5.21341 11.3976 5.10341 10.9332H2.94008C3.29453 11.5443 3.73746 12.0759 4.26888 12.5282C4.80079 12.9804 5.40897 13.3165 6.09341 13.5365ZM2.94008 5.0665H5.10341C5.21341 4.60206 5.35104 4.15277 5.51628 3.71864C5.68104 3.28499 5.87341 2.8665 6.09341 2.46317C5.40897 2.68317 4.80079 3.01928 4.26888 3.4715C3.73746 3.92373 3.29453 4.45539 2.94008 5.0665ZM8.00008 13.8298C8.31786 13.3898 8.59286 12.9315 8.82508 12.4548C9.0573 11.9782 9.24675 11.4709 9.39341 10.9332H6.60675C6.75341 11.4709 6.94286 11.9782 7.17508 12.4548C7.4073 12.9315 7.6823 13.3898 8.00008 13.8298ZM6.27675 9.4665H9.72342C9.76008 9.22206 9.7877 8.98055 9.80628 8.74197C9.82437 8.50388 9.83341 8.2565 9.83341 7.99984C9.83341 7.74317 9.82437 7.49579 9.80628 7.2577C9.7877 7.01913 9.76008 6.77762 9.72342 6.53317H6.27675C6.24008 6.77762 6.2127 7.01913 6.19461 7.2577C6.17604 7.49579 6.16675 7.74317 6.16675 7.99984C6.16675 8.2565 6.17604 8.50388 6.19461 8.74197C6.2127 8.98055 6.24008 9.22206 6.27675 9.4665ZM9.90675 13.5365C10.5912 13.3165 11.1991 12.9804 11.7305 12.5282C12.2625 12.0759 12.7056 11.5443 13.0601 10.9332H10.8967C10.7867 11.3976 10.6494 11.8467 10.4846 12.2803C10.3194 12.7144 10.1267 13.1332 9.90675 13.5365ZM11.1901 9.4665H13.6834C13.7445 9.22206 13.7905 8.98055 13.8213 8.74197C13.8516 8.50388 13.8667 8.2565 13.8667 7.99984C13.8667 7.74317 13.8516 7.49579 13.8213 7.2577C13.7905 7.01913 13.7445 6.77762 13.6834 6.53317H11.1901C11.2267 6.77762 11.2541 7.01913 11.2722 7.2577C11.2908 7.49579 11.3001 7.74317 11.3001 7.99984C11.3001 8.2565 11.2908 8.50388 11.2722 8.74197C11.2541 8.98055 11.2267 9.22206 11.1901 9.4665Z" fill="#414042"/>
</g>
<defs>
<clipPath id="clip0_1_1000">
<rect width="16" height="16" fill="white"/>
</clipPath>
</defs>
</svg>
